<svg width="60" height="50" viewBox="0 0 60 50" fill="none" xmlns="http://www.w3.org/2000/svg">
<path d="M17.2232 32.6246H27.4129C28.2922 32.6246 29.0049 31.9119 29.0049 31.0331C29.0049 30.1538 28.292 29.4406 27.4129 29.4406H21.0662L27.0217 23.4854C28.3004 22.2067 29.0049 20.5067 29.0049 18.6981C29.0049 16.8898 28.3004 15.1898 27.0217 13.9111C25.7433 12.6323 24.0431 11.9282 22.2347 11.9282C20.4262 11.9282 18.7262 12.6325 17.4477 13.9111C16.8259 14.5325 16.8259 15.5408 17.4477 16.1626C18.0696 16.784 19.0774 16.784 19.6992 16.1622C20.3762 15.4849 21.2771 15.1121 22.2347 15.1121C23.1926 15.1121 24.0932 15.4849 24.7705 16.1626C25.4479 16.8394 25.8207 17.74 25.8207 18.6981C25.8207 19.656 25.4479 20.5566 24.7705 21.2339L16.0971 29.9074C15.6417 30.3624 15.5057 31.0474 15.7518 31.6424C15.9986 32.237 16.5791 32.6246 17.2232 32.6246Z" fill="#111111"/>
<path d="M42.7253 29.4413H41.3724V26.2436C41.3724 25.3647 40.6598 24.6516 39.7805 24.6516C38.9012 24.6516 38.1888 25.3647 38.1888 26.2436V29.4413H34.3764L41.2328 14.1727C41.5929 13.3708 41.2346 12.4284 40.4325 12.0683C39.6304 11.7082 38.6882 12.0663 38.3282 12.8682L30.464 30.3812C30.2428 30.8737 30.2862 31.4449 30.5795 31.8985C30.8731 32.3517 31.3759 32.625 31.9161 32.625H38.1885V35.8232C38.1885 36.7021 38.901 37.4154 39.7803 37.4154C40.6598 37.4154 41.3722 36.7021 41.3722 35.8232V32.625H42.7251C43.6044 32.625 44.3173 31.9124 44.3173 31.0335C44.3175 30.1542 43.6044 29.4413 42.7253 29.4413Z" fill="#333333"/>
<path d="M59.7359 23.8765C59.4516 23.384 58.9258 23.0803 58.3573 23.0803H54.5942C54.2151 17.0898 51.7027 11.5095 47.42 7.22723C42.7601 2.56738 36.5646 0.0012207 29.9748 0.0012207C29.0955 0.0012207 28.3828 0.713875 28.3828 1.59295C28.3828 2.47247 29.0957 3.18489 29.9748 3.18489C41.2876 3.18489 50.586 11.9727 51.4033 23.0805H47.7515C47.1825 23.0805 46.6572 23.3843 46.3729 23.8767C46.0882 24.3694 46.0882 24.9762 46.3729 25.4689L51.6755 34.6537C51.9602 35.1464 52.4856 35.4495 53.0541 35.4495C53.623 35.4495 54.1486 35.1464 54.4328 34.6537L59.7356 25.4689C60.0199 24.976 60.0199 24.3691 59.7359 23.8765ZM53.0541 30.6732L50.5088 26.2642H55.6L53.0541 30.6732Z" fill="#111111"/>
<path d="M25.008 3.18437C25.4266 3.18437 25.8373 3.01366 26.1336 2.71739C26.4296 2.42134 26.6001 2.01062 26.6001 1.5922C26.6001 1.17241 26.4299 0.762617 26.1336 0.466565C25.8375 0.169379 25.4266 0 25.008 0C24.5884 0 24.1786 0.169379 23.8819 0.466565C23.5858 0.762617 23.416 1.17332 23.416 1.5922C23.416 2.01062 23.5858 2.42134 23.8819 2.71739C24.1786 3.01366 24.5884 3.18437 25.008 3.18437Z" fill="#111111"/>
<path d="M20.2309 3.18437C20.6493 3.18437 21.0602 3.01366 21.3563 2.71739C21.6534 2.42134 21.8228 2.01062 21.8228 1.5922C21.8228 1.17241 21.6534 0.762617 21.3563 0.466565C21.0602 0.169379 20.6493 0 20.2309 0C19.8122 0 19.4015 0.169379 19.1052 0.466565C18.808 0.762617 18.6387 1.17241 18.6387 1.5922C18.6387 2.01062 18.808 2.42134 19.1052 2.71739C19.4013 3.01366 19.8122 3.18437 20.2309 3.18437Z" fill="#111111"/>
<path d="M29.9745 46.1589C24.2347 46.1589 18.839 43.9237 14.7803 39.8655C11.0994 36.1846 8.91854 31.4031 8.54485 26.2633H12.1976C12.198 26.2633 12.1985 26.2633 12.199 26.2633C13.0783 26.2633 13.7909 25.5506 13.7909 24.6713C13.7909 24.3562 13.6992 24.062 13.5409 23.815L8.2731 14.6907C7.98908 14.1983 7.46326 13.895 6.89455 13.895C6.32583 13.895 5.80024 14.1983 5.516 14.6907L0.213184 23.8756C-0.0710614 24.3682 -0.0710614 24.9751 0.213184 25.4677C0.49743 25.9604 1.02302 26.2635 1.59173 26.2635H5.35458C5.73417 32.2547 8.2463 37.8342 12.5288 42.1168C17.1887 46.7771 23.3842 49.343 29.9743 49.343C30.8536 49.343 31.566 48.6304 31.566 47.7508C31.5662 46.872 30.8538 46.1589 29.9745 46.1589ZM6.89477 18.6706L9.44027 23.0794H4.34928L6.89477 18.6706Z" fill="#111111"/>
<path d="M34.9416 46.1584C34.5229 46.1584 34.1122 46.3292 33.8159 46.6248C33.5199 46.921 33.3496 47.3317 33.3496 47.7504C33.3496 48.17 33.5199 48.58 33.8159 48.8762C34.112 49.173 34.5229 49.3426 34.9416 49.3426C35.3611 49.3426 35.7709 49.173 36.0679 48.8762C36.3639 48.58 36.5333 48.1695 36.5333 47.7504C36.5333 47.3317 36.3639 46.921 36.0679 46.6248C35.7709 46.3292 35.3611 46.1584 34.9416 46.1584Z" fill="#111111"/>
<path d="M39.7169 46.1584C39.2974 46.1584 38.8874 46.3292 38.5913 46.6248C38.2944 46.921 38.125 47.3317 38.125 47.7504C38.125 48.1695 38.2946 48.58 38.5913 48.8762C38.8874 49.173 39.2974 49.3426 39.7169 49.3426C40.1356 49.3426 40.5465 49.173 40.8424 48.8762C41.1384 48.58 41.3091 48.1695 41.3091 47.7504C41.3091 47.3317 41.1386 46.921 40.8424 46.6248C40.5465 46.3292 40.1354 46.1584 39.7169 46.1584Z" fill="#111111"/>
</svg>
