<svg width="84" height="50" viewBox="0 0 84 50" fill="none" xmlns="http://www.w3.org/2000/svg">
<path d="M3.038 19.9714H2.22852C0.997617 19.9714 0 20.9694 0 22.2C0 23.4306 0.997617 24.4285 2.22852 24.4285H3.038C4.26828 24.4285 5.26657 23.4306 5.26657 22.2C5.26657 20.9694 4.26859 19.9714 3.038 19.9714Z" fill="#111111"/>
<path d="M21.5709 24.4285C22.8015 24.4285 23.7997 23.4306 23.7997 22.2C23.7997 20.9694 22.8015 19.9714 21.5709 19.9714H9.20334C7.97307 19.9714 6.97482 20.9694 6.97482 22.2C6.97482 23.4306 7.97307 24.4285 9.20334 24.4285H21.5709Z" fill="#111111"/>
<path d="M10.5779 16.1559H11.3782C12.6094 16.1559 13.6067 15.1579 13.6067 13.9276C13.6067 12.6964 12.6094 11.6988 11.3782 11.6988H10.5779C9.34703 11.6988 8.34941 12.6967 8.34941 13.9276C8.34941 15.1579 9.34703 16.1559 10.5779 16.1559Z" fill="#111111"/>
<path d="M24.0074 11.6988H17.5433C16.3121 11.6988 15.3145 12.6967 15.3145 13.9276C15.3145 15.1582 16.3121 16.1559 17.5433 16.1559H24.0074C25.2383 16.1559 26.2359 15.1579 26.2359 13.9276C26.2359 12.6964 25.2383 11.6988 24.0074 11.6988Z" fill="#111111"/>
<path d="M11.3881 28.2452H10.5779C9.34703 28.2452 8.34941 29.2431 8.34941 30.474C8.34941 31.7046 9.34703 32.7022 10.5779 32.7022H11.3881C12.619 32.7022 13.6166 31.7043 13.6166 30.474C13.6166 29.2431 12.619 28.2452 11.3881 28.2452Z" fill="#111111"/>
<path d="M24.0073 28.2452H17.5528C16.3219 28.2452 15.3242 29.2431 15.3242 30.474C15.3242 31.7046 16.3219 32.7022 17.5528 32.7022H24.0073C25.2382 32.7022 26.2358 31.7043 26.2358 30.474C26.2358 29.2431 25.2382 28.2452 24.0073 28.2452Z" fill="#111111"/>
<path d="M83.3384 24.123L72.6422 12.4241C72.2205 11.962 71.623 11.6989 70.9972 11.6989H58.3512V2.22853C58.3512 0.997627 57.3536 0 56.1227 0H15.5098C14.2789 0 13.2812 0.997945 13.2812 2.22853C13.2812 3.45912 14.2789 4.45707 15.5098 4.45707H53.8938V39.9446H34.6735C33.7109 36.7108 30.7129 34.3456 27.1711 34.3456C23.6294 34.3456 20.6308 36.7108 19.6691 39.9446H15.5098C14.2789 39.9446 13.2812 40.9422 13.2812 42.1728C13.2812 43.404 14.2789 44.4013 15.5098 44.4013H19.6691C20.6308 47.6345 23.6294 50 27.1711 50C30.7129 50 33.7109 47.6345 34.6735 44.4013H56.1224H61.4051C62.3678 47.6345 65.3665 50 68.9076 50C72.45 50 75.4479 47.6345 76.4103 44.4013H81.6934C82.9243 44.4013 83.9219 43.4037 83.9219 42.1728V25.6266C83.9225 25.0707 83.7137 24.5339 83.3384 24.123ZM27.1711 45.5436C25.3129 45.5436 23.801 44.0317 23.801 42.1731C23.801 40.3148 25.3129 38.8027 27.1711 38.8027C29.0294 38.8027 30.5413 40.3151 30.5413 42.1731C30.5416 44.0317 29.0294 45.5436 27.1711 45.5436ZM68.9079 45.5436C67.0496 45.5436 65.5377 44.0317 65.5377 42.1731C65.5377 40.3148 67.0499 38.8027 68.9079 38.8027C70.7668 38.8027 72.2786 40.3151 72.2786 42.1731C72.279 44.0317 70.7668 45.5436 68.9079 45.5436ZM76.4109 39.9449C75.4485 36.7111 72.4506 34.3459 68.9082 34.3459C65.3668 34.3459 62.3685 36.7111 61.4058 39.9449H58.3515V16.1562H70.0158L76.6369 23.3984H64.0135C62.7832 23.3984 61.7856 24.3963 61.7856 25.6269C61.7856 26.8581 62.7832 27.8554 64.0135 27.8554H79.4655V39.9446H76.4109V39.9449Z" fill="#111111"/>
</svg>
